<svg width="33" height="33" viewBox="0 0 33 33" fill="none" xmlns="http://www.w3.org/2000/svg">
<path d="M9.87356 0.169029C8.17114 0.24935 7.00857 0.521031 5.99224 0.920392C4.94039 1.33031 4.04886 1.8804 3.16181 2.77064C2.27476 3.66088 1.72852 4.55304 1.32147 5.60649C0.92755 6.62505 0.660668 7.78858 0.585467 9.49194C0.510266 11.1953 0.493626 11.7428 0.501946 16.0878C0.510266 20.4328 0.529466 20.9774 0.612027 22.6843C0.693308 24.3864 0.964031 25.5486 1.36339 26.5653C1.77396 27.6171 2.3234 28.5083 3.21397 29.3957C4.10454 30.2831 4.99607 30.828 6.05208 31.2357C7.06969 31.629 8.23355 31.8971 9.9366 31.9717C11.6397 32.0463 12.1878 32.0635 16.5315 32.0552C20.8753 32.0469 21.4222 32.0277 23.1287 31.9467C24.8353 31.8658 25.9915 31.5931 27.0085 31.1957C28.0603 30.7842 28.9522 30.2357 29.8389 29.3448C30.7256 28.4539 31.2715 27.5611 31.6783 26.507C32.0725 25.4894 32.3403 24.3256 32.4143 22.6238C32.4888 20.916 32.5064 20.3707 32.4981 16.0264C32.4898 11.682 32.4703 11.1374 32.3893 9.43114C32.3083 7.7249 32.0373 6.56617 31.6383 5.54889C31.2271 4.49704 30.6783 3.60648 29.788 2.71848C28.8978 1.83048 28.0043 1.28487 26.9505 0.879112C25.9323 0.485191 24.7691 0.21671 23.066 0.143109C21.363 0.0695091 20.8148 0.0506291 16.4695 0.0589491C12.1241 0.0672691 11.5801 0.0858292 9.87356 0.169029ZM10.0604 29.0933C8.50043 29.0254 7.65338 28.7662 7.08889 28.5493C6.34137 28.2613 5.80888 27.9131 5.24631 27.356C4.68375 26.7989 4.33815 26.2645 4.0463 25.5186C3.8271 24.9541 3.5631 24.108 3.49014 22.548C3.41078 20.8619 3.39414 20.3557 3.38486 16.084C3.37558 11.8123 3.3919 11.3067 3.46582 9.61994C3.53238 8.06122 3.79318 7.21321 4.00982 6.64905C4.29782 5.90057 4.64471 5.36905 5.20311 4.80681C5.76152 4.24456 6.29432 3.89832 7.04089 3.60648C7.60474 3.38632 8.45083 3.12456 10.0102 3.05032C11.6976 2.97032 12.2032 2.95432 16.4743 2.94504C20.7454 2.93576 21.2522 2.95176 22.9403 3.026C24.499 3.09384 25.3473 3.35208 25.9108 3.57C26.6587 3.858 27.1909 4.20392 27.7531 4.76329C28.3153 5.32265 28.6619 5.85353 28.9538 6.60169C29.1742 7.16393 29.436 8.0097 29.5096 9.57002C29.5899 11.2574 29.6082 11.7633 29.6158 16.034C29.6235 20.3048 29.6085 20.812 29.5346 22.4981C29.4664 24.0581 29.2078 24.9054 28.9906 25.4706C28.7026 26.2178 28.3553 26.7506 27.7966 27.3125C27.2379 27.8744 26.7057 28.2206 25.9588 28.5125C25.3956 28.7323 24.5486 28.9947 22.9905 29.069C21.3031 29.1483 20.7975 29.165 16.5248 29.1742C12.2521 29.1835 11.7481 29.1662 10.0608 29.0933M23.1041 7.50569C23.1047 7.88546 23.218 8.25651 23.4295 8.57192C23.641 8.88732 23.9413 9.13291 24.2925 9.27763C24.6436 9.42235 25.0297 9.45969 25.4021 9.38493C25.7744 9.31017 26.1162 9.12668 26.3843 8.85765C26.6523 8.58862 26.8345 8.24614 26.9079 7.87353C26.9813 7.50093 26.9426 7.11492 26.7966 6.76434C26.6506 6.41376 26.4039 6.11435 26.0877 5.90398C25.7715 5.69361 25.4 5.58173 25.0203 5.58249C24.5112 5.58351 24.0233 5.78668 23.664 6.14733C23.3046 6.50799 23.1032 6.99659 23.1041 7.50569ZM8.28475 16.0731C8.29371 20.6107 11.9789 24.2808 16.5156 24.2722C21.0522 24.2635 24.7249 20.5787 24.7163 16.0411C24.7076 11.5035 21.0215 7.83242 16.4842 7.84138C11.9469 7.85034 8.2761 11.5361 8.28475 16.0731ZM11.1667 16.0673C11.1646 15.0125 11.4754 13.9807 12.0597 13.1024C12.644 12.2242 13.4756 11.539 14.4494 11.1334C15.4232 10.7277 16.4953 10.62 17.5303 10.8237C18.5653 11.0275 19.5167 11.5336 20.2641 12.278C21.0114 13.0224 21.5213 13.9717 21.7291 15.0059C21.937 16.0401 21.8335 17.1127 21.4317 18.088C21.03 19.0634 20.348 19.8977 19.4721 20.4855C18.5962 21.0733 17.5656 21.3881 16.5107 21.3902C15.8103 21.3917 15.1165 21.2552 14.4688 20.9885C13.8211 20.7217 13.2324 20.33 12.7361 19.8357C12.2399 19.3415 11.8458 18.7542 11.5766 18.1076C11.3073 17.4611 11.168 16.7677 11.1667 16.0673Z" fill="white"/>
</svg>
