<svg width="33" height="32" viewBox="0 0 33 32" fill="none" xmlns="http://www.w3.org/2000/svg">
<path d="M27.7655 27.0538H23.0241V19.7017C23.0241 17.9486 22.9925 15.6917 20.5581 15.6917C18.0886 15.6917 17.7108 17.6018 17.7108 19.5741V27.0533H12.9694V11.9344H17.5211V14.0006H17.5848C18.0404 13.2294 18.6986 12.595 19.4895 12.1649C20.2803 11.7349 21.1742 11.5252 22.0758 11.5584C26.8815 11.5584 27.7675 14.6882 27.7675 18.7599L27.7655 27.0538ZM7.6195 9.8678C7.07531 9.86789 6.54329 9.70821 6.09076 9.40893C5.63822 9.10965 5.2855 8.68421 5.07716 8.18643C4.86882 7.68865 4.81421 7.14088 4.92029 6.61238C5.02636 6.08388 5.28833 5.59839 5.67307 5.21731C6.0578 4.83623 6.54803 4.57667 7.08174 4.47145C7.61546 4.36623 8.16869 4.42009 8.6715 4.6262C9.17431 4.83231 9.60409 5.18143 9.90651 5.6294C10.2089 6.07737 10.3704 6.60408 10.3705 7.14291C10.3706 7.50069 10.2995 7.85497 10.1612 8.18553C10.023 8.51609 9.82043 8.81646 9.56497 9.06949C9.30952 9.32252 9.00621 9.52325 8.67241 9.66022C8.3386 9.7972 7.98083 9.86773 7.6195 9.8678ZM9.9902 27.0538H5.24386V11.9344H9.9902V27.0538ZM30.1293 0.0592876H2.86132C2.24241 0.052372 1.64602 0.289032 1.20325 0.717263C0.760483 1.14549 0.507553 1.73026 0.5 2.34306V29.4545C0.507295 30.0676 0.760076 30.6528 1.20283 31.0814C1.64559 31.5101 2.24211 31.7472 2.86132 31.7407H30.1293C30.7497 31.7484 31.3479 31.512 31.7924 31.0833C32.2369 30.6546 32.4914 30.0688 32.5 29.4545V2.34111C32.4912 1.72709 32.2365 1.14166 31.792 0.713437C31.3475 0.285217 30.7494 0.0492325 30.1293 0.0573307" fill="white"/>
</svg>
