<svg width="36" height="27" viewBox="0 0 36 27" fill="none" xmlns="http://www.w3.org/2000/svg">
<g filter="url(#filter0_d_504_2270)">
<path d="M3.55555 19.6667C2.69644 19.6667 2 18.9702 2 18.1111C2 17.252 2.69645 16.5556 3.55556 16.5556H28.4444C29.3036 16.5556 30 17.252 30 18.1111C30 18.9702 29.3036 19.6667 28.4444 19.6667H3.55555ZM3.55555 11.8889C2.69644 11.8889 2 11.1924 2 10.3333C2 9.47422 2.69645 8.77778 3.55556 8.77778H28.4444C29.3036 8.77778 30 9.47422 30 10.3333C30 11.1924 29.3036 11.8889 28.4444 11.8889H3.55555ZM3.55555 4.11111C2.69644 4.11111 2 3.41467 2 2.55556C2 1.69645 2.69645 1 3.55556 1H28.4444C29.3036 1 30 1.69645 30 2.55556C30 3.41467 29.3036 4.11111 28.4444 4.11111H3.55555Z" fill="white" fill-opacity="0.8" shape-rendering="crispEdges"/>
</g>
<defs>
<filter id="filter0_d_504_2270" x="0" y="0" width="36" height="26.6665" filterUnits="userSpaceOnUse" color-interpolation-filters="sRGB">
<feFlood flood-opacity="0" result="BackgroundImageFix"/>
<feColorMatrix in="SourceAlpha" type="matrix" values="0 0 0 0 0 0 0 0 0 0 0 0 0 0 0 0 0 0 127 0" result="hardAlpha"/>
<feOffset dx="2" dy="3"/>
<feGaussianBlur stdDeviation="2"/>
<feComposite in2="hardAlpha" operator="out"/>
<feColorMatrix type="matrix" values="0 0 0 0 0 0 0 0 0 0 0 0 0 0 0 0 0 0 0.5 0"/>
<feBlend mode="normal" in2="BackgroundImageFix" result="effect1_dropShadow_504_2270"/>
<feBlend mode="normal" in="SourceGraphic" in2="effect1_dropShadow_504_2270" result="shape"/>
</filter>
</defs>
</svg>
