<svg width="45" height="36" viewBox="0 0 45 36" fill="none" xmlns="http://www.w3.org/2000/svg">
<path d="M22.5 0.321411C23.2459 0.321411 23.9613 0.612436 24.4887 1.13046C25.0162 1.64849 25.3125 2.35109 25.3125 3.08369C25.3125 3.81629 25.0162 4.51889 24.4887 5.03691C23.9613 5.55494 23.2459 5.84597 22.5 5.84597C21.7541 5.84597 21.0387 5.55494 20.5113 5.03691C19.9838 4.51889 19.6875 3.81629 19.6875 3.08369C19.6875 2.35109 19.9838 1.64849 20.5113 1.13046C21.0387 0.612436 21.7541 0.321411 22.5 0.321411ZM25.643 11.6675L26.4234 17.7928C26.5359 18.7044 25.882 19.5261 24.9609 19.6435C24.0398 19.7609 23.1961 19.1118 23.0766 18.2072L22.7672 15.7902H22.2328L21.9234 18.2072C21.8109 19.1187 20.9672 19.7609 20.0391 19.6435C19.1109 19.5261 18.457 18.7044 18.5766 17.7928L19.357 11.6606L17.9648 12.8207C17.2547 13.4146 16.1859 13.3248 15.5883 12.6274C14.9906 11.9299 15.075 10.8802 15.7852 10.2932L17.7469 8.66349C19.0758 7.55858 20.7633 6.95088 22.5 6.95088C24.2367 6.95088 25.9242 7.55858 27.2531 8.65658L29.2148 10.2863C29.925 10.8802 30.0164 11.923 29.4117 12.6205C28.807 13.3179 27.7453 13.4077 27.0352 12.8138L25.643 11.6606V11.6675ZM2.8125 4.74106C4.36641 4.74106 5.625 5.97717 5.625 7.50333V18.5663C5.625 19.7402 6.09609 20.8658 6.93984 21.6945L10.5328 25.2233C11.1164 25.7965 12.0305 25.8863 12.7125 25.4374C13.6195 24.8435 13.7461 23.5798 12.9727 22.8271L11.9039 21.7774L9.65391 19.5676C8.775 18.7044 8.775 17.3025 9.65391 16.4393C10.5328 15.5761 11.9602 15.5761 12.8391 16.4393L15.0891 18.6491L16.1578 19.6988L17.9367 21.4459C19.4133 22.8961 20.243 24.8642 20.243 26.9152V32.3638C20.243 34.1938 18.7312 35.6786 16.868 35.6786H12.1852C10.9898 35.6786 9.84375 35.2159 9 34.3872L1.97578 27.4884C0.710156 26.2454 0 24.5604 0 22.7994V7.50333C0 5.97717 1.25859 4.74106 2.8125 4.74106ZM42.1875 4.74106C43.7414 4.74106 45 5.97717 45 7.50333V22.7994C45 24.5604 44.2898 26.2454 43.0242 27.4884L36 34.3872C35.1562 35.2159 34.0102 35.6786 32.8148 35.6786H28.125C26.2617 35.6786 24.75 34.1938 24.75 32.3638V26.9152C24.75 24.8642 25.5797 22.8961 27.0562 21.4459L28.8352 19.6988L29.9039 18.6491L32.1539 16.4393C33.0328 15.5761 34.4602 15.5761 35.3391 16.4393C36.218 17.3025 36.218 18.7044 35.3391 19.5676L33.0891 21.7774L32.0203 22.8271C31.2469 23.5867 31.3734 24.8435 32.2805 25.4374C32.9625 25.8863 33.8766 25.7965 34.4602 25.2233L38.0531 21.6945C38.8969 20.8658 39.368 19.7402 39.368 18.5663V7.50333C39.368 5.97717 40.6266 4.74106 42.1805 4.74106H42.1875Z" fill="#124D0D"/>
</svg>
