<svg width="44" height="42" viewBox="0 0 44 42" fill="none" xmlns="http://www.w3.org/2000/svg">
<path d="M30.7128 0.444458C29.4311 3.26419 28.0018 6.09591 25.0327 8.31444C25.7059 8.62795 26.9414 8.88613 27.6053 9.09821C26.4804 10.8225 24.5625 12.4546 22.8105 13.9207C23.834 14.4463 24.8483 14.8705 25.8626 15.2116C24.5625 17.2587 23.0134 19.2043 21.077 20.9654C22.6169 21.823 24.1475 22.4961 25.669 22.9756C24.0184 25.3177 21.9438 27.5491 19.0207 29.9926C23.7695 32.4362 27.965 33.5703 32.1328 33.4412C32.2988 33.4412 32.4739 33.4504 32.6399 33.4504V33.4228C36.319 33.2199 39.9797 32.0397 44 29.9189C40.4223 27.6598 38.2001 25.5205 36.4942 23.1692C38.1355 22.6897 39.7769 21.9797 41.4089 21.0392C39.03 19.4071 37.3333 17.48 35.9779 15.3684C37.0936 15.0272 38.2001 14.5662 39.3066 13.9853C37.1674 12.639 35.2402 11.0069 34.0784 9.24575C34.8898 9.02445 36.1807 8.75704 36.9829 8.37899C33.4329 6.37253 32.4739 3.47719 30.7128 0.444458ZM14.4011 28.4527C14.3919 28.4804 14.3642 28.5265 14.3458 28.5542L16.1346 41.3711L22.7921 41.4818C19.2697 37.3416 16.7063 33.0816 14.4011 28.4527ZM14.3458 28.5634C12.1512 32.971 10.2148 37.2494 6.37529 41.2144L13.4606 41.3343L14.3458 28.5634ZM12.4371 28.6648C10.2148 29.4855 7.44214 30.2232 4.8474 30.1217C3.81651 33.7916 2.41494 37.4984 0 40.7994L4.30152 40.947C8.27847 37.1849 10.2241 33.1093 12.4371 28.6648ZM29.6339 35.0088L29.385 41.5002L33.3499 41.5556L32.7875 35.1102C31.7178 35.1102 30.6574 35.0825 29.6339 35.0088Z" fill="#124D0D"/>
</svg>
