<svg width="28" height="50" viewBox="0 0 28 50" fill="none" xmlns="http://www.w3.org/2000/svg">
<path d="M18.6667 4.78086C18.6663 6.01895 18.174 7.20617 17.2983 8.08134C16.4225 8.95651 15.235 9.44794 13.9969 9.44753C12.7588 9.44711 11.5716 8.95489 10.6964 8.07914C9.82124 7.20338 9.32981 6.01584 9.33022 4.77775C9.33064 3.53966 9.82286 2.35244 10.6986 1.47727C11.1322 1.04393 11.647 0.700248 12.2134 0.465836C12.7799 0.231425 13.387 0.11088 14 0.111084C14.613 0.111289 15.22 0.232238 15.7863 0.467027C16.3526 0.701815 16.8671 1.04585 17.3005 1.47947C17.7338 1.9131 18.0775 2.42784 18.3119 2.99429C18.5463 3.56074 18.6669 4.16782 18.6667 4.78086ZM25.6169 25.0031L28 23.2764L21.5196 13.2555C21.3781 13.0407 21.1855 12.8643 20.9591 12.7421C20.7327 12.6199 20.4795 12.5558 20.2222 12.5555H7.77778C7.52035 12.555 7.26687 12.6187 7.04032 12.741C6.81377 12.8632 6.62133 13.0401 6.48044 13.2555L0 23.2764L2.38311 25.0031L7.76222 18.0217L9.632 22.3835L3.11422 34.3333H9.07822L10.1142 49.8889H13.2253V34.3333H14.7809V49.8889H17.892L18.928 34.3333H24.892L18.3742 22.3804L20.244 18.0186L25.6231 25L25.6169 25.0031Z" fill="#124D0D"/>
</svg>
