<svg width="45" height="40" viewBox="0 0 45 40" fill="none" xmlns="http://www.w3.org/2000/svg">
<path d="M40.2189 14.1515L36.469 12.2765C35.6752 11.3331 34.6852 10.5743 33.568 10.0529C32.4508 9.53155 31.2332 9.26022 30.0004 9.25786H28.1254C27.2817 12.8015 25.4255 18.0139 18.2631 16.5327C17.8964 16.4559 17.5746 16.2377 17.3676 15.9253C17.1605 15.613 17.0849 15.2317 17.1569 14.864C17.2338 14.5137 17.4416 14.206 17.7379 14.0038C18.0341 13.8017 18.3964 13.7203 18.7506 13.7765C19.4256 13.9798 20.134 14.048 20.8354 13.9772C21.5368 13.9064 22.2173 13.6981 22.838 13.364C24.938 11.9578 25.5005 7.73914 25.913 5.63919C26.0269 4.50401 25.7126 3.36719 25.0317 2.45177C24.3844 1.81665 23.5994 1.33915 22.7378 1.05627C21.8761 0.773388 20.9609 0.692734 20.0631 0.820558C14.682 0.951804 13.7632 1.73929 12.5633 3.258C11.1099 2.74162 9.55407 2.58089 8.02588 2.78926C5.76134 3.1579 3.70484 4.32847 2.23164 6.08736C0.758442 7.84625 -0.0332373 10.0762 0.00107001 12.3703V26.1325C0.127197 28.8387 1.2257 31.4086 3.09475 33.3698C3.26999 33.5416 3.50559 33.6378 3.75098 33.6378C3.99637 33.6378 4.23197 33.5416 4.40722 33.3698L7.21965 30.5574C7.30752 30.4702 7.37726 30.3665 7.42485 30.2523C7.47245 30.138 7.49695 30.0155 7.49695 29.8917C7.49695 29.768 7.47245 29.6455 7.42485 29.5312C7.37726 29.417 7.30752 29.3133 7.21965 29.2261C6.08419 27.8283 5.51537 26.055 5.62594 24.2575V23.6575C5.6252 23.5165 5.65695 23.3771 5.71872 23.2503C5.7805 23.1235 5.87065 23.0126 5.98218 22.9263C6.09343 22.836 6.22463 22.7736 6.36485 22.7443C6.50508 22.7149 6.65029 22.7195 6.78841 22.7575C7.77663 22.9856 8.77876 23.1484 9.78834 23.245C9.98905 23.2623 10.1785 23.3451 10.3276 23.4806C10.4767 23.6161 10.5771 23.7968 10.6133 23.995L10.7633 24.7075C11.2991 27.8018 11.4627 30.9491 11.2508 34.0823V38.3009C11.2508 38.5496 11.3496 38.788 11.5254 38.9638C11.7012 39.1396 11.9396 39.2384 12.1883 39.2384H17.8131C18.0618 39.2384 18.3002 39.1396 18.476 38.9638C18.6519 38.788 18.7506 38.5496 18.7506 38.3009V30.8011C18.7506 30.5525 18.8494 30.314 19.0252 30.1382C19.201 29.9624 19.4395 29.8636 19.6881 29.8636H30.0004C30.249 29.8636 30.4874 29.9624 30.6633 30.1382C30.8391 30.314 30.9378 30.5525 30.9378 30.8011V38.3009C30.9378 38.5496 31.0366 38.788 31.2124 38.9638C31.3882 39.1396 31.6267 39.2384 31.8753 39.2384H37.5002C37.7488 39.2384 37.9873 39.1396 38.1631 38.9638C38.3389 38.788 38.4377 38.5496 38.4377 38.3009V17.4514C39.6607 18.0522 40.6068 19.099 41.0813 20.3763C41.1923 20.7218 41.2492 21.0823 41.2501 21.4451V28.9449C41.2501 29.4422 41.4476 29.9191 41.7993 30.2707C42.1509 30.6223 42.6278 30.8198 43.125 30.8198C43.6223 30.8198 44.0992 30.6223 44.4508 30.2707C44.8025 29.9191 45 29.4422 45 28.9449V21.4451C44.9043 19.919 44.4132 18.4441 43.5749 17.1654C42.7367 15.8866 41.5801 14.8479 40.2189 14.1515ZM4.21972 12.539C4.21972 12.1682 4.32968 11.8057 4.53571 11.4974C4.74173 11.189 5.03456 10.9487 5.37716 10.8068C5.71976 10.6649 6.09675 10.6278 6.46046 10.7001C6.82417 10.7724 7.15825 10.951 7.42047 11.2132C7.68269 11.4755 7.86126 11.8095 7.9336 12.1732C8.00595 12.537 7.96882 12.9139 7.82691 13.2565C7.685 13.5991 7.44468 13.892 7.13634 14.098C6.82801 14.304 6.46551 14.414 6.09468 14.414C5.59741 14.414 5.1205 14.2164 4.76888 13.8648C4.41726 13.5132 4.21972 13.0363 4.21972 12.539Z" fill="#124D0D"/>
</svg>
